<svg width="16" height="16" viewBox="0 0 16 16" fill="none" xmlns="http://www.w3.org/2000/svg">
<circle cx="8" cy="8" r="8" fill="white"/>
<path d="M11.6749 4.33076C11.4474 4.10326 11.0799 4.10326 10.8524 4.33076L7.99992 7.17742L5.14742 4.32492C4.91992 4.09742 4.55242 4.09742 4.32492 4.32492C4.09742 4.55242 4.09742 4.91992 4.32492 5.14742L7.17742 7.99992L4.32492 10.8524C4.09742 11.0799 4.09742 11.4474 4.32492 11.6749C4.55242 11.9024 4.91992 11.9024 5.14742 11.6749L7.99992 8.82242L10.8524 11.6749C11.0799 11.9024 11.4474 11.9024 11.6749 11.6749C11.9024 11.4474 11.9024 11.0799 11.6749 10.8524L8.82242 7.99992L11.6749 5.14742C11.8966 4.92576 11.8966 4.55242 11.6749 4.33076Z" fill="#828282"/>
</svg>
