<svg width="259" height="71" viewBox="0 0 259 71" fill="none" xmlns="http://www.w3.org/2000/svg">
<circle opacity="0.14" cx="35.8316" cy="35.354" r="35.354" fill="url(#paint0_linear_925_10188)"/>
<path d="M60.8131 46.2107V23.7591C60.8131 20.2246 57.9981 17.3594 54.5256 17.3594C51.0532 17.3594 48.2382 20.2246 48.2382 23.7591V39.026C48.832 38.4516 49.6197 37.9746 50.395 38.2442C50.8085 38.388 51.1772 38.6666 51.3457 39.1575C51.6124 39.9343 51.1899 40.7543 50.8121 41.4819L49.0713 44.8338C48.9895 44.9913 48.8871 45.1368 48.7668 45.2663C48.4273 45.6317 48.2382 46.1155 48.2382 46.6184V47.7639C48.2382 50.4405 50.37 52.6104 52.9997 52.6104H54.5256C57.9981 52.6104 60.8131 49.7451 60.8131 46.2107Z" fill="#9FF9E8"/>
<path d="M38.1369 46.4261V23.5439C38.1369 20.0145 35.2758 17.1533 31.7464 17.1533C28.217 17.1533 25.3558 20.0145 25.3558 23.5439V39.0734C25.9592 38.4925 26.7647 38.008 27.5552 38.2849C27.9787 38.4333 28.355 38.7209 28.5218 39.2285C28.7767 40.0045 28.3592 40.8158 27.9813 41.54L26.2027 44.9489C26.1195 45.1084 26.0151 45.2559 25.8924 45.3874C25.5476 45.7568 25.3558 46.2433 25.3558 46.7487V47.9002C25.3558 50.6155 27.557 52.8167 30.2723 52.8167H31.7464C35.2758 52.8167 38.1369 49.9555 38.1369 46.4261Z" fill="#849EFE"/>
<path d="M60.1853 31.5878C62.7061 29.067 66.7776 29.0514 69.2793 31.5531V31.5531C71.7809 34.0547 71.7654 38.1262 69.2446 40.6471L58.756 51.1357C56.2352 53.6565 52.1636 53.672 49.662 51.1704V51.1704C47.1603 48.6687 47.1759 44.5972 49.6967 42.0764L60.1853 31.5878Z" fill="#10EAED"/>
<path d="M27.2962 19.0823C29.7875 16.5909 33.8268 16.5909 36.3181 19.0823V19.0823C38.8094 21.5736 38.8094 25.6128 36.3181 28.1042L13.533 50.8893C11.0416 53.3806 7.00237 53.3806 4.51103 50.8893V50.8893C2.01969 48.398 2.01969 44.3587 4.51103 41.8674L27.2962 19.0823Z" fill="url(#paint1_linear_925_10188)"/>
<g filter="url(#filter0_bd_925_10188)">
<path fill-rule="evenodd" clip-rule="evenodd" d="M26.5946 19.6855C25.8159 20.7445 25.3558 22.0523 25.3558 23.4675V39.0031C25.3678 38.9916 25.3798 38.9802 25.3919 38.9688L36.2919 28.0657C37.3906 26.9667 38.0056 25.567 38.1369 24.1314V23.4675C38.1369 22.7604 38.0221 22.0802 37.8101 21.4444C37.5034 20.5609 36.9974 19.7313 36.2919 19.0256C33.7962 16.5292 29.75 16.5292 27.2543 19.0256L26.5946 19.6855Z" fill="url(#paint2_linear_925_10188)"/>
</g>
<path d="M49.7841 19.3183C52.3459 16.7565 56.4995 16.7565 59.0614 19.3183V19.3183C61.6232 21.8802 61.6232 26.0338 59.0614 28.5956L36.1594 51.4976C33.5976 54.0594 29.444 54.0594 26.8821 51.4976V51.4976C24.3203 48.9357 24.3203 44.7821 26.8821 42.2203L49.7841 19.3183Z" fill="url(#paint3_linear_925_10188)"/>
<path fill-rule="evenodd" clip-rule="evenodd" d="M36.8291 50.8599C37.6507 49.7599 38.1371 48.3949 38.1371 46.9164V30.9663C38.1248 30.9781 38.1124 30.9899 38.1 31.0016L26.8483 42.2133C25.7141 43.3435 25.0792 44.7828 24.9437 46.259V46.9164C24.9437 47.8276 25.1285 48.6957 25.4625 49.4851C25.7833 50.22 26.2452 50.9084 26.8483 51.5093C29.4244 54.0763 33.6012 54.0763 36.1774 51.5093L36.8291 50.8599Z" fill="url(#paint4_linear_925_10188)"/>
<path fill-rule="evenodd" clip-rule="evenodd" d="M59.5324 50.4684C60.3375 49.3987 60.8132 48.0771 60.8132 46.6469V30.9665C60.8009 30.9782 60.7884 30.9898 60.7758 31.0014L49.5244 42.0071C48.3902 43.1165 47.7554 44.5294 47.6199 45.9785V46.6469C47.6199 47.3726 47.7423 48.0703 47.9682 48.7213C48.2857 49.6018 48.8045 50.4283 49.5244 51.1325C52.1006 53.6524 56.2774 53.6524 58.8535 51.1325L59.5324 50.4684Z" fill="url(#paint5_linear_925_10188)"/>
<path fill-rule="evenodd" clip-rule="evenodd" d="M49.2711 19.959C48.4917 21.0303 48.032 22.349 48.032 23.7752V39.6215C48.0441 39.6097 48.0563 39.5981 48.0686 39.5864L59.1444 28.4777C60.2609 27.3579 60.8858 25.9318 61.0192 24.4691V23.7752C61.0192 23.1603 60.9337 22.5653 60.774 22.0015C60.4758 21.0006 59.9326 20.0575 59.1444 19.267C56.6085 16.7235 52.497 16.7235 49.9611 19.267L49.2711 19.959Z" fill="url(#paint6_linear_925_10188)"/>
<path d="M114.479 28.3203C115.975 28.3203 117.332 28.5815 118.55 29.1038C119.803 29.6262 120.864 30.3749 121.734 31.35C122.604 32.325 123.282 33.4916 123.769 34.8497C124.256 36.173 124.5 37.6704 124.5 39.342V55.5871H118.602V40.23C118.602 38.2102 118.115 36.6257 117.141 35.4765C116.167 34.3274 114.792 33.7528 113.018 33.7528C111.348 33.7528 110.008 34.2751 108.999 35.3198C107.99 36.3645 107.399 37.6878 107.225 39.2897V39.4464V55.5871H101.327V40.23C101.327 38.2102 100.823 36.6257 99.8137 35.4765C98.8395 34.3274 97.5521 33.7528 95.9516 33.7528C94.0728 33.7528 92.5766 34.3796 91.4632 35.6333C90.3846 36.8521 89.8453 38.4017 89.8453 40.2822V55.5871H84V28.7904H89.5322V32.3424C90.2281 31.1584 91.1849 30.2008 92.4027 29.4695C93.6552 28.7034 95.2731 28.3203 97.2564 28.3203C99.1352 28.3203 100.805 28.7382 102.267 29.574C103.728 30.4097 104.894 31.6111 105.763 33.1782C106.564 31.7853 107.677 30.6361 109.104 29.7307C110.565 28.7904 112.357 28.3203 114.479 28.3203Z" fill="#141B31"/>
<path d="M141.549 28.3203C145.028 28.3203 147.672 29.2257 149.482 31.0365C151.326 32.8474 152.248 35.4765 152.248 38.9241V55.5871H146.35V53.1843C145.411 54.0897 144.332 54.8036 143.114 55.326C141.931 55.8483 140.592 56.1095 139.096 56.1095C136.417 56.1095 134.259 55.4304 132.624 54.0723C130.989 52.7142 130.171 50.7815 130.171 48.2742C130.171 46.8464 130.415 45.645 130.902 44.67C131.424 43.6601 132.12 42.8417 132.989 42.2149C133.894 41.5533 134.938 41.0657 136.121 40.7523C137.339 40.4389 138.626 40.2474 139.983 40.1777L146.35 39.8121V39.0285C146.35 37.2874 145.967 35.9293 145.202 34.9542C144.471 33.9443 143.271 33.4394 141.601 33.4394C139.931 33.4394 138.713 33.8921 137.948 34.7975C137.182 35.7029 136.799 36.765 136.799 37.9838L130.902 37.7749C130.902 36.5909 131.145 35.4417 131.632 34.3274C132.12 33.1782 132.815 32.1683 133.72 31.2977C134.625 30.3923 135.738 29.6784 137.06 29.1561C138.382 28.5989 139.879 28.3203 141.549 28.3203ZM140.818 44.7222C139.426 44.7918 138.278 45.0878 137.373 45.6102C136.504 46.0977 136.069 46.9509 136.069 48.1697C136.069 49.2841 136.434 50.0676 137.165 50.5203C137.93 50.973 138.904 51.1994 140.087 51.1994C141.966 51.1994 143.48 50.7293 144.628 49.789C145.811 48.8488 146.402 47.3514 146.402 45.2968V44.3565L140.818 44.7222Z" fill="#141B31"/>
<path d="M165.956 31.8198C166.583 30.8795 167.522 30.0612 168.775 29.3647C170.027 28.6682 171.593 28.32 173.472 28.32C175.003 28.32 176.395 28.5812 177.647 29.1035C178.934 29.5911 180.03 30.3224 180.935 31.2974C181.875 32.2376 182.605 33.4042 183.127 34.7972C183.649 36.1553 183.91 37.7049 183.91 39.4461V55.5868H178.012V40.2296C178.012 38.2099 177.473 36.6254 176.395 35.4762C175.351 34.3271 173.942 33.7525 172.167 33.7525C170.288 33.7525 168.775 34.3793 167.627 35.6329C166.513 36.8518 165.956 38.4014 165.956 40.2819V55.5868H160.111V15H165.956V31.8198Z" fill="#141B31"/>
<path d="M200.263 28.3203C203.742 28.3203 206.387 29.2257 208.196 31.0365C210.04 32.8474 210.962 35.4765 210.962 38.9241V55.5871H205.065V53.1843C204.125 54.0897 203.047 54.8036 201.829 55.326C200.646 55.8483 199.306 56.1095 197.81 56.1095C195.131 56.1095 192.974 55.4304 191.338 54.0723C189.703 52.7142 188.885 50.7815 188.885 48.2742C188.885 46.8464 189.129 45.645 189.616 44.67C190.138 43.6601 190.834 42.8417 191.704 42.2149C192.608 41.5533 193.652 41.0657 194.835 40.7523C196.053 40.4389 197.34 40.2474 198.697 40.1777L205.065 39.8121V39.0285C205.065 37.2874 204.682 35.9293 203.916 34.9542C203.186 33.9443 201.985 33.4394 200.315 33.4394C198.645 33.4394 197.427 33.8921 196.662 34.7975C195.896 35.7029 195.514 36.765 195.514 37.9838L189.616 37.7749C189.616 36.5909 189.86 35.4417 190.347 34.3274C190.834 33.1782 191.53 32.1683 192.434 31.2977C193.339 30.3923 194.452 29.6784 195.775 29.1561C197.097 28.5989 198.593 28.3203 200.263 28.3203ZM199.532 44.7222C198.141 44.7918 196.992 45.0878 196.088 45.6102C195.218 46.0977 194.783 46.9509 194.783 48.1697C194.783 49.2841 195.148 50.0676 195.879 50.5203C196.644 50.973 197.619 51.1994 198.802 51.1994C200.681 51.1994 202.194 50.7293 203.342 49.789C204.525 48.8488 205.117 47.3514 205.117 45.2968V44.3565L199.532 44.7222Z" fill="#141B31"/>
<path d="M218.825 55.5868V15H224.671V55.5868H218.825Z" fill="#141B31"/>
<path d="M244.19 28.3203C246.173 28.3203 248.017 28.6511 249.722 29.3128C251.427 29.9396 252.888 30.8624 254.106 32.0813C255.359 33.2653 256.333 34.7278 257.029 36.469C257.759 38.1754 258.125 40.0907 258.125 42.2149C258.125 44.3391 257.759 46.2544 257.029 47.9608C256.333 49.6671 255.359 51.1297 254.106 52.3485C252.888 53.5325 251.427 54.4554 249.722 55.117C248.017 55.7787 246.173 56.1095 244.19 56.1095C242.207 56.1095 240.363 55.7787 238.658 55.117C236.953 54.4554 235.474 53.5325 234.222 52.3485C232.969 51.1297 231.977 49.6671 231.247 47.9608C230.551 46.2544 230.203 44.3391 230.203 42.2149C230.203 40.0907 230.551 38.1754 231.247 36.469C231.977 34.7278 232.969 33.2653 234.222 32.0813C235.474 30.8624 236.953 29.9396 238.658 29.3128C240.363 28.6511 242.207 28.3203 244.19 28.3203ZM244.19 33.3349C241.859 33.3349 239.928 34.1184 238.397 35.6855C236.901 37.2177 236.153 39.3942 236.153 42.2149C236.153 45.0008 236.901 47.1773 238.397 48.7443C239.928 50.2766 241.859 51.0427 244.19 51.0427C245.338 51.0427 246.399 50.8511 247.374 50.4681C248.348 50.0502 249.2 49.4756 249.931 48.7443C250.662 47.9782 251.218 47.0554 251.601 45.9758C252.018 44.8615 252.227 43.6078 252.227 42.2149C252.227 40.822 252.018 39.5857 251.601 38.5062C251.218 37.3918 250.662 36.4516 249.931 35.6855C249.2 34.9194 248.348 34.3448 247.374 33.9617C246.399 33.5438 245.338 33.3349 244.19 33.3349Z" fill="#141B31"/>
<defs>
<filter id="filter0_bd_925_10188" x="-138.644" y="-146.847" width="340.781" height="349.852" filterUnits="userSpaceOnUse" color-interpolation-filters="sRGB">
<feFlood flood-opacity="0" result="BackgroundImageFix"/>
<feGaussianBlur in="BackgroundImageFix" stdDeviation="82"/>
<feComposite in2="SourceAlpha" operator="in" result="effect1_backgroundBlur_925_10188"/>
<feColorMatrix in="SourceAlpha" type="matrix" values="0 0 0 0 0 0 0 0 0 0 0 0 0 0 0 0 0 0 127 0" result="hardAlpha"/>
<feOffset dx="-2" dy="3"/>
<feGaussianBlur stdDeviation="7.5"/>
<feComposite in2="hardAlpha" operator="out"/>
<feColorMatrix type="matrix" values="0 0 0 0 0 0 0 0 0 0 0 0 0 0 0 0 0 0 0.1 0"/>
<feBlend mode="normal" in2="effect1_backgroundBlur_925_10188" result="effect2_dropShadow_925_10188"/>
<feBlend mode="normal" in="SourceGraphic" in2="effect2_dropShadow_925_10188" result="shape"/>
</filter>
<linearGradient id="paint0_linear_925_10188" x1="13.0188" y1="63.0639" x2="63.0638" y2="12.8994" gradientUnits="userSpaceOnUse">
<stop stop-color="#3767F8"/>
<stop offset="0.481131" stop-color="#61D2F3"/>
<stop offset="1" stop-color="#10EAED"/>
</linearGradient>
<linearGradient id="paint1_linear_925_10188" x1="35.1467" y1="18.1733" x2="4.52213" y2="50.8997" gradientUnits="userSpaceOnUse">
<stop stop-color="#2D23D4"/>
<stop offset="0.429794" stop-color="#2E48F3"/>
<stop offset="1" stop-color="#418CFD"/>
</linearGradient>
<linearGradient id="paint2_linear_925_10188" x1="31.7464" y1="17.1533" x2="25.3526" y2="37.051" gradientUnits="userSpaceOnUse">
<stop stop-color="#4C0CCF"/>
<stop offset="1" stop-color="#344CEF"/>
</linearGradient>
<linearGradient id="paint3_linear_925_10188" x1="52.761" y1="23.4304" x2="33.1412" y2="45.2605" gradientUnits="userSpaceOnUse">
<stop stop-color="#49D7E9"/>
<stop offset="0.456979" stop-color="#71CEF9"/>
<stop offset="1" stop-color="#6EB4FE"/>
</linearGradient>
<linearGradient id="paint4_linear_925_10188" x1="28.139" y1="41.1397" x2="38.3685" y2="49.5493" gradientUnits="userSpaceOnUse">
<stop stop-color="#588AFD"/>
<stop offset="0.471686" stop-color="#649EFF"/>
<stop offset="1" stop-color="#6DAFFF"/>
</linearGradient>
<linearGradient id="paint5_linear_925_10188" x1="54.2165" y1="53.0225" x2="59.8321" y2="31.7351" gradientUnits="userSpaceOnUse">
<stop stop-color="#C8FCC6"/>
<stop offset="0.497488" stop-color="#95F8D2"/>
<stop offset="1" stop-color="#5EF1DA"/>
</linearGradient>
<linearGradient id="paint6_linear_925_10188" x1="54.5256" y1="17.3594" x2="47.9966" y2="38.5681" gradientUnits="userSpaceOnUse">
<stop stop-color="#15E6E8"/>
<stop offset="0.433113" stop-color="#36E8E5"/>
<stop offset="1" stop-color="#65E8E2"/>
</linearGradient>
</defs>
</svg>
